<svg xmlns="http://www.w3.org/2000/svg" viewBox="0 0 512 512">
    <defs>
        <linearGradient id="primaryGrad" x1="0%" y1="0%" x2="100%" y2="100%">
            <stop offset="0%" stop-color="#3b82f6" />
            <stop offset="100%" stop-color="#8b5cf6" />
        </linearGradient>
        <filter id="glow" x="-20%" y="-20%" width="140%" height="140%">
            <feGaussianBlur stdDeviation="15" result="blur" />
            <feComposite in="SourceGraphic" in2="blur" operator="over" />
        </filter>
    </defs>
    <!-- Background Base Document -->
    <path d="M128,80 C128,53.49 149.49,32 176,32 L336,32 C342.36,32 348.47,34.52 352.97,39.03 L432.97,119.03 C437.48,123.53 440,129.64 440,136 L440,432 C440,458.51 418.51,480 392,480 L176,480 C149.49,480 128,458.51 128,432 L128,80 Z" fill="url(#primaryGrad)" filter="url(#glow)"/>
    <!-- Folded Corner Effect -->
    <path d="M336,32 L336,104 C336,121.67 350.33,136 368,136 L440,136 L336,32 Z" fill="#ffffff" opacity="0.3"/>
    <!-- Cloud Cutout -->
    <path d="M296,288 C296,288 296,272 272,272 C266.38,272 261.02,273.43 256.32,275.9 C247.96,252.05 225.43,235.42 198.85,235.42 C168.17,235.42 143.31,261.27 143.31,293.18 C143.31,296.2 143.43,299.18 143.68,302.13 C121.72,306.94 105,326.68 105,350.59 C105,378.11 127.18,400.42 154.54,400.42 L296,400.42 C326.93,400.42 352,375.35 352,344.42 C352,313.49 326.93,288 296,288 Z" fill="#ffffff" filter="drop-shadow(0px 8px 16px rgba(0,0,0,0.15))"/>
    <!-- Ascending Arrow inner cutout inside cloud -->
    <path d="M246,312 L246,364 L266,364 L266,312 L284,312 L256,284 L228,312 L246,312 Z" fill="url(#primaryGrad)"/>
</svg>